<svg width="1038" height="187" viewBox="0 0 1038 187" fill="none" xmlns="http://www.w3.org/2000/svg">
<rect width="195.233" height="187" rx="44.6918" fill="#2CB1BC"/>
<path d="M122.93 67.0794C122.288 61.6622 119.687 57.4568 115.125 54.4631C110.563 51.4693 104.968 49.9725 98.3386 49.9725C93.4916 49.9725 89.2506 50.7566 85.6153 52.3247C82.0158 53.8928 79.2002 56.049 77.1688 58.7932C75.173 61.5375 74.1751 64.6559 74.1751 68.1486C74.1751 71.071 74.8701 73.5836 76.26 75.6863C77.6856 77.7534 79.5032 79.4819 81.7128 80.8719C83.9225 82.2261 86.239 83.3488 88.6625 84.2398C91.086 85.0951 93.3134 85.7901 95.3449 86.3247L106.464 89.3184C109.316 90.0668 112.487 91.1004 115.98 92.419C119.508 93.7377 122.876 95.5375 126.084 97.8184C129.327 100.064 132 102.95 134.103 106.479C136.205 110.007 137.257 114.337 137.257 119.469C137.257 125.385 135.707 130.731 132.606 135.507C129.541 140.283 125.05 144.078 119.134 146.894C113.254 149.709 106.108 151.117 97.6971 151.117C89.8564 151.117 83.0671 149.852 77.3292 147.322C71.6269 144.791 67.1363 141.263 63.8575 136.737C60.6143 132.21 58.7789 126.954 58.3512 120.966H72.0367C72.3931 125.1 73.783 128.522 76.2065 131.23C78.6656 133.903 81.7663 135.899 85.5084 137.218C89.2862 138.501 93.3491 139.142 97.6971 139.142C102.758 139.142 107.302 138.323 111.329 136.683C115.356 135.008 118.546 132.692 120.898 129.733C123.251 126.74 124.427 123.247 124.427 119.255C124.427 115.62 123.411 112.662 121.379 110.381C119.348 108.1 116.675 106.247 113.361 104.822C110.046 103.396 106.464 102.149 102.615 101.079L89.1436 97.2303C80.5902 94.7712 73.8187 91.2607 68.8292 86.6989C63.8397 82.1371 61.3449 76.1675 61.3449 68.7901C61.3449 62.6601 63.0021 57.3142 66.3166 52.7524C69.6667 48.1549 74.1573 44.5909 79.7883 42.0605C85.455 39.4945 91.7809 38.2115 98.7663 38.2115C105.823 38.2115 112.095 39.4767 117.584 42.0071C123.072 44.5018 127.42 47.9232 130.628 52.2712C133.871 56.6192 135.582 61.5553 135.76 67.0794H122.93Z" fill="white"/>
<g filter="url(#filter0_d_105_12)">
<path d="M275.807 71.4575C275.379 67.6619 273.615 64.7217 270.514 62.6368C267.414 60.5252 263.511 59.4693 258.807 59.4693C255.439 59.4693 252.525 60.0039 250.066 61.0731C247.607 62.1156 245.696 63.559 244.333 65.4033C242.996 67.2209 242.328 69.2925 242.328 71.6179C242.328 73.5692 242.782 75.2531 243.691 76.6698C244.627 78.0865 245.843 79.2759 247.34 80.2382C248.863 81.1737 250.494 81.9623 252.231 82.6038C253.969 83.2186 255.639 83.7264 257.243 84.1274L265.262 86.2123C267.881 86.8538 270.568 87.7225 273.321 88.8184C276.074 89.9143 278.627 91.3577 280.979 93.1486C283.331 94.9395 285.229 97.158 286.672 99.8042C288.142 102.45 288.877 105.618 288.877 109.307C288.877 113.958 287.675 118.087 285.269 121.696C282.89 125.304 279.428 128.151 274.884 130.236C270.367 132.321 264.901 133.363 258.486 133.363C252.338 133.363 247.019 132.388 242.528 130.436C238.038 128.485 234.523 125.719 231.983 122.137C229.444 118.528 228.041 114.252 227.774 109.307H240.203C240.443 112.274 241.406 114.746 243.09 116.724C244.8 118.675 246.979 120.132 249.625 121.094C252.298 122.03 255.225 122.498 258.406 122.498C261.907 122.498 265.021 121.95 267.748 120.854C270.501 119.731 272.666 118.181 274.243 116.203C275.82 114.198 276.608 111.859 276.608 109.186C276.608 106.754 275.914 104.763 274.524 103.212C273.16 101.662 271.303 100.379 268.95 99.3632C266.625 98.3475 263.992 97.452 261.052 96.6769L251.349 94.0307C244.774 92.2398 239.561 89.6069 235.712 86.1321C231.89 82.6572 229.979 78.0597 229.979 72.3396C229.979 67.6085 231.262 63.4788 233.828 59.9505C236.394 56.4222 239.869 53.6824 244.252 51.7311C248.636 49.7531 253.581 48.7642 259.087 48.7642C264.647 48.7642 269.552 49.7398 273.802 51.691C278.079 53.6423 281.447 56.3286 283.906 59.75C286.365 63.1447 287.648 67.0472 287.755 71.4575H275.807ZM328.661 133.243C322.7 133.243 317.568 131.893 313.265 129.193C308.988 126.467 305.7 122.711 303.402 117.927C301.103 113.142 299.953 107.663 299.953 101.488C299.953 95.2335 301.13 89.7138 303.482 84.9292C305.834 80.1179 309.148 76.3624 313.425 73.6627C317.702 70.9631 322.74 69.6132 328.541 69.6132C333.218 69.6132 337.388 70.4819 341.05 72.2193C344.712 73.93 347.666 76.3357 349.911 79.4363C352.183 82.537 353.533 86.1588 353.96 90.3019H342.293C341.652 87.4151 340.181 84.9292 337.883 82.8443C335.611 80.7594 332.563 79.717 328.741 79.717C325.4 79.717 322.473 80.5991 319.96 82.3632C317.475 84.1006 315.537 86.5865 314.147 89.8208C312.757 93.0283 312.062 96.8239 312.062 101.208C312.062 105.698 312.744 109.574 314.107 112.835C315.47 116.096 317.394 118.622 319.88 120.413C322.393 122.204 325.346 123.099 328.741 123.099C331.013 123.099 333.071 122.685 334.916 121.856C336.787 121.001 338.35 119.785 339.607 118.208C340.89 116.631 341.785 114.733 342.293 112.514H353.96C353.533 116.497 352.236 120.052 350.071 123.179C347.906 126.307 345.006 128.766 341.371 130.557C337.762 132.347 333.526 133.243 328.661 133.243ZM378.769 95.434V132H366.781V49.8868H378.608V80.4387H379.37C380.814 77.1242 383.019 74.4914 385.986 72.5401C388.953 70.5888 392.829 69.6132 397.613 69.6132C401.836 69.6132 405.525 70.4819 408.679 72.2193C411.86 73.9568 414.319 76.5495 416.057 79.9976C417.821 83.419 418.703 87.6958 418.703 92.8278V132H406.715V94.2712C406.715 89.7539 405.552 86.2524 403.226 83.7665C400.901 81.2539 397.667 79.9976 393.524 79.9976C390.69 79.9976 388.151 80.5991 385.906 81.8019C383.687 83.0047 381.936 84.7689 380.653 87.0943C379.397 89.3931 378.769 92.173 378.769 95.434ZM460.642 133.243C454.868 133.243 449.829 131.92 445.526 129.274C441.222 126.627 437.881 122.925 435.502 118.167C433.123 113.41 431.934 107.85 431.934 101.488C431.934 95.0998 433.123 89.5134 435.502 84.7288C437.881 79.9442 441.222 76.2288 445.526 73.5826C449.829 70.9363 454.868 69.6132 460.642 69.6132C466.415 69.6132 471.454 70.9363 475.757 73.5826C480.061 76.2288 483.402 79.9442 485.781 84.7288C488.16 89.5134 489.349 95.0998 489.349 101.488C489.349 107.85 488.16 113.41 485.781 118.167C483.402 122.925 480.061 126.627 475.757 129.274C471.454 131.92 466.415 133.243 460.642 133.243ZM460.682 123.179C464.424 123.179 467.524 122.19 469.983 120.212C472.443 118.234 474.26 115.601 475.436 112.314C476.639 109.026 477.241 105.404 477.241 101.448C477.241 97.5189 476.639 93.9104 475.436 90.6226C474.26 87.3082 472.443 84.6486 469.983 82.6439C467.524 80.6392 464.424 79.6368 460.682 79.6368C456.913 79.6368 453.785 80.6392 451.3 82.6439C448.84 84.6486 447.009 87.3082 445.807 90.6226C444.631 93.9104 444.042 97.5189 444.042 101.448C444.042 105.404 444.631 109.026 445.807 112.314C447.009 115.601 448.84 118.234 451.3 120.212C453.785 122.19 456.913 123.179 460.682 123.179ZM514.719 49.8868V132H502.731V49.8868H514.719ZM548.769 133.363C544.866 133.363 541.338 132.642 538.184 131.198C535.03 129.728 532.531 127.603 530.686 124.823C528.869 122.043 527.96 118.635 527.96 114.599C527.96 111.124 528.628 108.264 529.965 106.019C531.301 103.774 533.105 101.996 535.377 100.686C537.649 99.3766 540.189 98.3876 542.995 97.7193C545.802 97.0511 548.662 96.5432 551.575 96.1958C555.264 95.7681 558.258 95.4206 560.557 95.1533C562.855 94.8593 564.526 94.3915 565.568 93.75C566.611 93.1085 567.132 92.066 567.132 90.6226V90.342C567.132 86.8404 566.143 84.1274 564.165 82.2028C562.214 80.2783 559.3 79.316 555.425 79.316C551.388 79.316 548.208 80.2115 545.882 82.0024C543.583 83.7665 541.993 85.7311 541.111 87.8962L529.844 85.3302C531.181 81.5881 533.132 78.5676 535.698 76.2689C538.291 73.9434 541.271 72.2594 544.639 71.217C548.007 70.1478 551.549 69.6132 555.264 69.6132C557.723 69.6132 560.329 69.9072 563.083 70.4953C565.862 71.0566 568.455 72.0991 570.861 73.6226C573.293 75.1462 575.285 77.3247 576.835 80.158C578.385 82.9646 579.16 86.6132 579.16 91.1038V132H567.453V123.58H566.972C566.197 125.131 565.034 126.654 563.483 128.151C561.933 129.648 559.942 130.891 557.509 131.88C555.077 132.869 552.164 133.363 548.769 133.363ZM551.375 123.741C554.689 123.741 557.523 123.086 559.875 121.776C562.254 120.466 564.058 118.756 565.288 116.644C566.544 114.506 567.172 112.22 567.172 109.788V101.849C566.744 102.277 565.916 102.678 564.686 103.052C563.483 103.399 562.107 103.707 560.557 103.974C559.006 104.215 557.496 104.442 556.026 104.656C554.556 104.843 553.326 105.003 552.337 105.137C550.012 105.431 547.887 105.925 545.962 106.62C544.064 107.315 542.541 108.318 541.391 109.627C540.269 110.91 539.708 112.621 539.708 114.759C539.708 117.726 540.803 119.972 542.995 121.495C545.187 122.992 547.98 123.741 551.375 123.741ZM595.128 132V70.4151H606.715V80.1981H607.357C608.479 76.8836 610.457 74.2775 613.291 72.3797C616.151 70.4552 619.385 69.4929 622.993 69.4929C623.742 69.4929 624.624 69.5197 625.64 69.5731C626.682 69.6266 627.497 69.6934 628.085 69.7736V81.2406C627.604 81.1069 626.749 80.9599 625.519 80.7995C624.29 80.6124 623.06 80.5189 621.831 80.5189C618.997 80.5189 616.471 81.1203 614.253 82.3231C612.061 83.4992 610.324 85.1431 609.041 87.2547C607.758 89.3396 607.116 91.7186 607.116 94.3915V132H595.128ZM684.208 71.4575C683.78 67.6619 682.016 64.7217 678.915 62.6368C675.814 60.5252 671.912 59.4693 667.208 59.4693C663.84 59.4693 660.926 60.0039 658.467 61.0731C656.008 62.1156 654.097 63.559 652.733 65.4033C651.397 67.2209 650.729 69.2925 650.729 71.6179C650.729 73.5692 651.183 75.2531 652.092 76.6698C653.028 78.0865 654.244 79.2759 655.741 80.2382C657.264 81.1737 658.895 81.9623 660.632 82.6038C662.369 83.2186 664.04 83.7264 665.644 84.1274L673.663 86.2123C676.282 86.8538 678.969 87.7225 681.722 88.8184C684.475 89.9143 687.028 91.3577 689.38 93.1486C691.732 94.9395 693.63 97.158 695.073 99.8042C696.543 102.45 697.278 105.618 697.278 109.307C697.278 113.958 696.075 118.087 693.67 121.696C691.291 125.304 687.829 128.151 683.285 130.236C678.768 132.321 673.302 133.363 666.887 133.363C660.739 133.363 655.42 132.388 650.929 130.436C646.439 128.485 642.924 125.719 640.384 122.137C637.845 118.528 636.442 114.252 636.175 109.307H648.604C648.844 112.274 649.807 114.746 651.491 116.724C653.201 118.675 655.38 120.132 658.026 121.094C660.699 122.03 663.626 122.498 666.807 122.498C670.308 122.498 673.422 121.95 676.149 120.854C678.902 119.731 681.067 118.181 682.644 116.203C684.221 114.198 685.009 111.859 685.009 109.186C685.009 106.754 684.314 104.763 682.925 103.212C681.561 101.662 679.704 100.379 677.351 99.3632C675.026 98.3475 672.393 97.452 669.453 96.6769L659.75 94.0307C653.175 92.2398 647.962 89.6069 644.113 86.1321C640.291 82.6572 638.38 78.0597 638.38 72.3396C638.38 67.6085 639.663 63.4788 642.229 59.9505C644.795 56.4222 648.27 53.6824 652.653 51.7311C657.037 49.7531 661.982 48.7642 667.488 48.7642C673.048 48.7642 677.953 49.7398 682.203 51.691C686.48 53.6423 689.847 56.3286 692.307 59.75C694.766 63.1447 696.049 67.0472 696.156 71.4575H684.208ZM711.121 155.094V70.4151H722.828V80.3986H723.831C724.526 79.1156 725.528 77.6321 726.838 75.9481C728.148 74.2642 729.965 72.794 732.291 71.5377C734.616 70.2547 737.69 69.6132 741.512 69.6132C746.484 69.6132 750.921 70.8695 754.824 73.3821C758.726 75.8947 761.787 79.5165 764.005 84.2476C766.251 88.9788 767.373 94.6722 767.373 101.328C767.373 107.983 766.264 113.69 764.045 118.448C761.827 123.179 758.78 126.828 754.904 129.394C751.028 131.933 746.604 133.203 741.633 133.203C737.891 133.203 734.83 132.575 732.451 131.318C730.099 130.062 728.254 128.592 726.918 126.908C725.582 125.224 724.552 123.727 723.831 122.417H723.109V155.094H711.121ZM722.868 101.208C722.868 105.538 723.497 109.333 724.753 112.594C726.009 115.855 727.827 118.408 730.206 120.252C732.585 122.07 735.498 122.979 738.946 122.979C742.528 122.979 745.522 122.03 747.927 120.132C750.333 118.208 752.151 115.601 753.38 112.314C754.637 109.026 755.265 105.324 755.265 101.208C755.265 97.1447 754.65 93.4961 753.42 90.2618C752.218 87.0275 750.4 84.4748 747.968 82.6038C745.562 80.7327 742.555 79.7972 738.946 79.7972C735.471 79.7972 732.531 80.6926 730.126 82.4835C727.747 84.2744 725.942 86.7736 724.713 89.9811C723.483 93.1887 722.868 96.9308 722.868 101.208ZM792.793 95.434V132H780.805V49.8868H792.633V80.4387H793.394C794.838 77.1242 797.043 74.4914 800.01 72.5401C802.977 70.5888 806.853 69.6132 811.637 69.6132C815.861 69.6132 819.549 70.4819 822.703 72.2193C825.884 73.9568 828.343 76.5495 830.081 79.9976C831.845 83.419 832.727 87.6958 832.727 92.8278V132H820.739V94.2712C820.739 89.7539 819.576 86.2524 817.251 83.7665C814.925 81.2539 811.691 79.9976 807.548 79.9976C804.714 79.9976 802.175 80.5991 799.93 81.8019C797.711 83.0047 795.96 84.7689 794.677 87.0943C793.421 89.3931 792.793 92.173 792.793 95.434ZM875.267 133.243C869.199 133.243 863.974 131.947 859.59 129.354C855.233 126.734 851.865 123.059 849.486 118.328C847.134 113.57 845.958 107.997 845.958 101.608C845.958 95.3003 847.134 89.7406 849.486 84.9292C851.865 80.1179 855.18 76.3624 859.43 73.6627C863.707 70.9631 868.705 69.6132 874.425 69.6132C877.9 69.6132 881.268 70.1879 884.529 71.3373C887.79 72.4866 890.717 74.2909 893.31 76.75C895.902 79.2091 897.947 82.4033 899.444 86.3325C900.941 90.2351 901.689 94.9796 901.689 100.566V104.816H852.734V95.8349H889.942C889.942 92.6808 889.3 89.8876 888.017 87.4552C886.734 84.9961 884.93 83.0582 882.604 81.6415C880.306 80.2248 877.606 79.5165 874.505 79.5165C871.137 79.5165 868.197 80.3451 865.685 82.0024C863.199 83.6329 861.274 85.7712 859.911 88.4175C858.574 91.0369 857.906 93.8836 857.906 96.9575V103.974C857.906 108.09 858.628 111.592 860.071 114.479C861.541 117.366 863.586 119.571 866.206 121.094C868.825 122.591 871.886 123.34 875.387 123.34C877.659 123.34 879.731 123.019 881.602 122.377C883.473 121.709 885.09 120.72 886.453 119.41C887.817 118.101 888.859 116.483 889.581 114.559L900.927 116.604C900.019 119.945 898.388 122.872 896.036 125.384C893.71 127.87 890.784 129.808 887.255 131.198C883.754 132.561 879.758 133.243 875.267 133.243ZM914.991 132V70.4151H926.578V80.1981H927.219C928.342 76.8836 930.32 74.2775 933.153 72.3797C936.013 70.4552 939.248 69.4929 942.856 69.4929C943.605 69.4929 944.487 69.5197 945.502 69.5731C946.545 69.6266 947.36 69.6934 947.948 69.7736V81.2406C947.467 81.1069 946.612 80.9599 945.382 80.7995C944.152 80.6124 942.923 80.5189 941.693 80.5189C938.86 80.5189 936.334 81.1203 934.116 82.3231C931.924 83.4992 930.186 85.1431 928.903 87.2547C927.62 89.3396 926.979 91.7186 926.979 94.3915V132H914.991ZM982.66 133.243C976.592 133.243 971.367 131.947 966.983 129.354C962.626 126.734 959.258 123.059 956.879 118.328C954.527 113.57 953.351 107.997 953.351 101.608C953.351 95.3003 954.527 89.7406 956.879 84.9292C959.258 80.1179 962.573 76.3624 966.823 73.6627C971.099 70.9631 976.098 69.6132 981.818 69.6132C985.293 69.6132 988.661 70.1879 991.922 71.3373C995.183 72.4866 998.109 74.2909 1000.7 76.75C1003.29 79.2091 1005.34 82.4033 1006.84 86.3325C1008.33 90.2351 1009.08 94.9796 1009.08 100.566V104.816H960.127V95.8349H997.334C997.334 92.6808 996.693 89.8876 995.41 87.4552C994.127 84.9961 992.322 83.0582 989.997 81.6415C987.698 80.2248 984.999 79.5165 981.898 79.5165C978.53 79.5165 975.59 80.3451 973.077 82.0024C970.591 83.6329 968.667 85.7712 967.304 88.4175C965.967 91.0369 965.299 93.8836 965.299 96.9575V103.974C965.299 108.09 966.021 111.592 967.464 114.479C968.934 117.366 970.979 119.571 973.598 121.094C976.218 122.591 979.278 123.34 982.78 123.34C985.052 123.34 987.124 123.019 988.995 122.377C990.866 121.709 992.483 120.72 993.846 119.41C995.209 118.101 996.252 116.483 996.973 114.559L1008.32 116.604C1007.41 119.945 1005.78 122.872 1003.43 125.384C1001.1 127.87 998.176 129.808 994.648 131.198C991.146 132.561 987.15 133.243 982.66 133.243Z" fill="#2CB1BC"/>
</g>
<defs>
<filter id="filter0_d_105_12" x="223.774" y="48.7642" width="789.308" height="114.33" filterUnits="userSpaceOnUse" color-interpolation-filters="sRGB">
<feFlood flood-opacity="0" result="BackgroundImageFix"/>
<feColorMatrix in="SourceAlpha" type="matrix" values="0 0 0 0 0 0 0 0 0 0 0 0 0 0 0 0 0 0 127 0" result="hardAlpha"/>
<feOffset dy="4"/>
<feGaussianBlur stdDeviation="2"/>
<feComposite in2="hardAlpha" operator="out"/>
<feColorMatrix type="matrix" values="0 0 0 0 0 0 0 0 0 0 0 0 0 0 0 0 0 0 0.25 0"/>
<feBlend mode="normal" in2="BackgroundImageFix" result="effect1_dropShadow_105_12"/>
<feBlend mode="normal" in="SourceGraphic" in2="effect1_dropShadow_105_12" result="shape"/>
</filter>
</defs>
</svg>
